<?xml version="1.0" standalone="no"?>
<!DOCTYPE svg PUBLIC "-//W3C//DTD SVG 20010904//EN"
 "http://www.w3.org/TR/2001/REC-SVG-20010904/DTD/svg10.dtd">
<svg version="1.0" xmlns="http://www.w3.org/2000/svg"
 width="1500.000000pt" height="1500.000000pt" viewBox="0 0 1500.000000 1500.000000"
 preserveAspectRatio="xMidYMid meet">

<g transform="translate(0.000000,1500.000000) scale(0.100000,-0.100000)"
fill="#1fd225" stroke="none">
<path d="M7240 12724 c-309 -28 -572 -90 -699 -167 l-34 -20 65 -22 c72 -24
144 -70 180 -114 l23 -28 58 29 c291 145 718 262 1037 283 228 16 103 31 -300
38 -157 3 -305 3 -330 1z"/>
<path d="M7847 12530 c-129 -14 -319 -47 -424 -75 -199 -52 -436 -159 -603
-271 -46 -30 -86 -51 -89 -47 -4 4 -26 34 -50 65 -74 98 -169 162 -286 193
-56 14 -245 22 -245 9 0 -3 24 -32 53 -64 177 -196 269 -520 253 -885 l-7
-140 46 80 c271 472 900 882 1551 1009 208 40 332 49 583 42 124 -3 244 -8
266 -11 32 -4 35 -3 18 4 -35 16 -249 59 -374 76 -136 19 -565 28 -692 15z
m-587 -180 c-8 -5 -19 -10 -25 -10 -5 0 -3 5 5 10 8 5 20 10 25 10 6 0 3 -5
-5 -10z"/>
<path d="M5547 12308 c99 -104 157 -204 199 -345 22 -74 26 -108 26 -213 1
-212 -56 -409 -195 -680 -164 -318 -188 -368 -236 -490 -93 -237 -149 -456
-172 -674 -16 -149 -6 -433 19 -556 100 -482 398 -823 860 -984 158 -55 253
-69 417 -63 162 6 240 25 380 91 210 101 396 274 559 520 55 82 156 265 156
281 0 5 -19 -9 -42 -32 -55 -51 -117 -92 -193 -126 -193 -85 -471 -87 -673 -6
-208 83 -440 310 -556 543 -85 171 -114 299 -122 536 -7 198 10 376 61 650 95
499 98 524 99 710 1 203 -10 260 -79 405 -69 147 -168 262 -308 357 -66 45
-207 118 -228 118 -7 0 5 -19 28 -42z m370 -900 c-3 -7 -5 -2 -5 12 0 14 2 19
5 13 2 -7 2 -19 0 -25z m-32 -140 c-30 -118 -95 -285 -228 -588 -121 -274
-158 -375 -207 -558 -48 -180 -60 -264 -61 -435 l-2 -132 -8 85 c-10 96 3 279
27 398 40 198 126 435 302 827 98 220 151 354 178 458 10 38 20 64 22 58 2 -6
-8 -57 -23 -113z m-488 -1770 c-3 -8 -6 -5 -6 6 -1 11 2 17 5 13 3 -3 4 -12 1
-19z m1932 -600 c-22 -41 -182 -192 -256 -241 -127 -84 -280 -146 -403 -161
-37 -5 -32 -2 30 17 219 68 415 186 575 345 69 69 70 69 54 40z"/>
<path d="M4400 12155 c-152 -29 -318 -140 -406 -272 -51 -77 -92 -199 -99
-298 -23 -295 181 -577 470 -650 76 -19 234 -19 309 0 182 48 329 173 411 350
41 88 55 154 55 258 0 108 -21 192 -72 290 -126 241 -399 373 -668 322z m55
-130 c30 -29 31 -46 8 -73 -18 -21 -121 -62 -154 -62 -28 0 -49 29 -49 64 0
41 14 53 87 76 76 25 80 24 108 -5z m-321 -293 c3 -5 -6 -35 -19 -68 -50 -121
-27 -273 55 -367 43 -49 51 -77 21 -77 -27 0 -79 63 -115 140 -29 60 -31 73
-31 175 0 92 4 118 22 158 15 33 28 47 42 47 11 0 22 -4 25 -8z"/>
<path d="M8325 12159 c-489 -59 -944 -275 -1235 -587 -185 -198 -313 -444
-372 -716 -41 -192 -33 -564 16 -766 13 -53 14 -51 9 65 -18 434 206 856 589
1112 342 229 712 300 1110 213 450 -98 911 -418 1267 -878 52 -67 96 -120 98
-118 2 1 -4 20 -12 40 -29 70 -55 203 -59 307 -8 224 53 429 179 597 l47 63
-34 52 c-47 70 -178 208 -252 265 -229 176 -473 281 -791 338 -108 19 -444 27
-560 13z m469 -128 c166 -34 353 -104 464 -174 l42 -27 29 20 c85 64 220 31
265 -63 20 -44 21 -129 0 -169 -9 -17 -13 -39 -11 -49 3 -11 -33 17 -82 63
-192 182 -418 297 -706 358 -145 31 -442 38 -628 15 -77 -9 -141 -15 -143 -12
-2 2 49 14 113 26 65 12 141 26 168 31 82 15 376 4 489 -19z"/>
<path d="M9628 12080 l-78 -5 108 -72 c121 -81 277 -216 371 -322 61 -69 64
-71 85 -57 148 107 370 176 560 176 70 0 219 -24 281 -45 66 -22 -170 93 -265
130 -365 139 -771 214 -1062 195z"/>
<path d="M10725 11383 c-239 -38 -422 -182 -508 -401 -39 -98 -49 -256 -23
-366 38 -162 175 -335 323 -409 271 -134 606 -59 780 176 84 114 133 256 133
385 -1 191 -122 408 -288 518 -108 72 -298 116 -417 97z m219 -154 c95 -18
114 -28 187 -98 75 -73 90 -107 65 -146 -27 -41 -56 -32 -118 38 -60 68 -133
114 -200 126 l-43 7 30 17 30 16 -65 1 c-36 0 -79 -4 -95 -8 -38 -11 -55 -5
-55 19 0 36 140 51 264 28z m349 -416 c38 -34 49 -77 36 -148 -18 -103 -63
-155 -136 -155 -22 0 -43 10 -65 29 -32 29 -33 31 -31 110 2 98 23 148 73 174
41 21 92 17 123 -10z"/>
<path d="M7975 11339 c-205 -27 -437 -122 -595 -242 -93 -71 -199 -178 -266
-267 -263 -349 -270 -763 -23 -1254 45 -88 146 -256 154 -256 2 0 -1 15 -6 33
-18 59 -12 245 10 329 25 95 75 205 132 289 53 80 166 193 240 241 199 131
552 198 805 154 311 -54 554 -195 1014 -591 422 -362 558 -450 778 -501 50
-12 100 -15 202 -11 152 5 243 28 380 97 68 34 200 123 200 135 0 2 -17 -2
-39 -10 -21 -7 -78 -18 -127 -24 -275 -32 -514 71 -752 324 l-89 95 -52 0
c-49 0 -57 4 -92 39 -34 34 -39 44 -39 85 0 26 7 60 15 75 14 27 12 32 -63
155 -126 207 -221 326 -422 526 -277 277 -472 406 -774 510 -179 62 -429 91
-591 69z m82 -64 c32 -32 35 -40 30 -76 -7 -54 -30 -77 -84 -85 -55 -8 -87 5
-108 47 -23 43 -12 91 26 123 45 39 92 35 136 -9z m818 -210 c62 -61 -2 -146
-81 -109 -31 15 -34 20 -34 60 0 33 5 46 22 58 32 23 65 20 93 -9z m-332 -15
c107 -36 261 -112 347 -170 81 -55 222 -174 291 -246 88 -92 282 -328 351
-427 263 -377 401 -536 566 -654 59 -43 64 -49 22 -28 -157 79 -327 260 -610
645 -193 263 -285 373 -431 515 -181 175 -348 282 -564 361 -114 42 -93 44 28
4z m-1433 -617 c-67 -234 -68 -469 -3 -731 14 -57 23 -105 20 -108 -7 -7 -53
114 -79 207 -31 115 -33 405 -4 514 17 66 85 229 92 222 2 -2 -10 -48 -26
-104z"/>
<path d="M3576 11120 c20 -402 192 -967 383 -1255 l46 -70 12 135 c14 167 43
310 92 461 l38 116 -56 28 c-99 48 -185 112 -268 198 -118 123 -182 242 -234
432 l-19 70 6 -115z"/>
<path d="M5248 10822 c-128 -167 -326 -300 -530 -353 -87 -24 -272 -32 -370
-17 l-46 7 -37 -87 c-136 -322 -145 -712 -24 -1080 238 -726 868 -1295 1547
-1397 127 -19 355 -19 468 0 203 35 433 126 609 242 99 65 245 185 315 258
l45 48 -57 -46 c-127 -101 -291 -181 -468 -225 -92 -23 -125 -26 -275 -27
-182 0 -257 11 -419 62 -360 112 -683 390 -846 728 -244 502 -213 1165 85
1837 24 54 43 98 41 98 -1 0 -18 -21 -38 -48z m-849 -897 c-30 -145 -30 -371
0 -519 53 -260 176 -526 356 -766 80 -106 72 -106 -18 2 -179 214 -304 470
-357 729 -42 207 -36 434 15 607 25 83 27 57 4 -53z"/>
<path d="M6751 10014 c0 -11 3 -14 6 -6 3 7 2 16 -1 19 -3 4 -6 -2 -5 -13z"/>
<path d="M8500 9525 c439 -239 678 -686 657 -1228 -13 -364 -144 -667 -401
-935 -310 -321 -756 -534 -1316 -627 -97 -16 -122 -23 -88 -24 89 -2 276 -31
364 -56 142 -41 259 -103 345 -183 88 -82 123 -102 182 -102 120 0 411 125
568 244 259 196 465 490 607 866 64 168 70 198 78 357 31 632 -297 1291 -799
1607 -80 50 -195 104 -257 120 -14 4 13 -14 60 -39z"/>
<path d="M7648 9456 c268 -145 452 -455 452 -762 0 -211 -98 -499 -231 -680
-200 -273 -461 -427 -1094 -649 -363 -127 -503 -188 -633 -278 -251 -173 -392
-485 -367 -811 7 -103 17 -109 30 -21 12 83 54 215 96 300 52 105 126 195 226
275 209 168 407 228 958 290 351 40 467 60 666 114 237 64 389 135 553 258
218 163 348 342 431 591 45 137 59 242 52 396 -7 155 -29 236 -103 389 -50
103 -63 121 -157 215 -116 116 -227 194 -378 266 -158 76 -401 141 -524 141
l-40 0 63 -34z"/>
<path d="M9664 9162 c246 -390 327 -1040 200 -1612 -79 -353 -228 -673 -479
-1027 -46 -64 132 125 219 233 98 122 152 202 240 354 264 455 378 859 364
1291 l-5 149 32 0 c193 0 389 131 470 315 l24 53 -47 -16 c-71 -23 -323 -23
-422 1 -114 28 -215 65 -322 118 -92 45 -262 151 -274 170 -3 5 -9 9 -15 9 -5
0 2 -17 15 -38z m483 -809 c-3 -10 -5 -4 -5 12 0 17 2 24 5 18 2 -7 2 -21 0
-30z m10 -190 c-3 -87 -13 -196 -22 -243 -17 -87 -74 -285 -80 -278 -2 2 9 55
26 118 44 174 59 272 66 423 3 75 8 137 11 137 3 0 2 -71 -1 -157z"/>
<path d="M4010 9075 c0 -22 64 -214 107 -325 86 -217 197 -408 360 -618 92
-118 413 -437 511 -507 147 -106 301 -179 424 -200 l36 -7 -32 -29 c-38 -33
-88 -135 -112 -229 -33 -130 0 -296 83 -411 l37 -52 12 69 c27 160 141 377
242 461 123 101 207 145 409 214 l128 44 -125 7 c-634 33 -1298 410 -1731 982
-91 121 -178 266 -265 441 -46 93 -84 165 -84 160z"/>
<path d="M10623 8494 c-48 -48 -134 -93 -191 -101 l-39 -5 -7 -92 c-24 -332
-149 -776 -302 -1078 -44 -86 -25 -65 79 92 224 336 395 679 461 927 24 90 52
273 45 290 -2 4 -23 -11 -46 -33z"/>
<path d="M4289 8053 c48 -96 174 -312 247 -426 181 -278 408 -513 476 -492 31
9 127 116 110 122 -7 3 -47 30 -90 60 -245 176 -478 406 -674 667 -50 67 -93
123 -95 126 -3 3 9 -23 26 -57z"/>
<path d="M7698 7173 c7 -3 16 -2 19 1 4 3 -2 6 -13 5 -11 0 -14 -3 -6 -6z"/>
<path d="M7658 7163 c7 -3 16 -2 19 1 4 3 -2 6 -13 5 -11 0 -14 -3 -6 -6z"/>
<path d="M7618 7153 c7 -3 16 -2 19 1 4 3 -2 6 -13 5 -11 0 -14 -3 -6 -6z"/>
<path d="M6834 6310 c-137 -36 -258 -115 -340 -222 -192 -255 -174 -589 46
-815 104 -106 212 -160 370 -184 346 -53 674 216 697 572 8 120 -9 206 -63
318 -128 264 -430 405 -710 331z m609 -729 c4 -20 -30 -115 -60 -163 -12 -20
-48 -63 -80 -95 -49 -49 -69 -62 -133 -83 -41 -13 -87 -33 -102 -42 -37 -25
-71 -22 -108 8 -28 24 -39 27 -140 30 -60 1 -120 8 -132 15 -42 22 -108 80
-123 109 -35 67 -5 158 60 185 46 20 87 10 138 -35 32 -28 53 -38 90 -42 32
-4 63 -16 91 -36 l43 -31 69 16 c103 23 109 22 112 -9 5 -40 26 -35 86 22 29
28 56 50 59 50 3 0 7 -8 10 -17 3 -12 13 1 31 39 18 38 25 66 21 80 -5 18 -4
20 4 8 9 -13 11 -13 11 1 0 22 48 13 53 -10z"/>
<path d="M8640 6080 c-100 -51 -272 -113 -428 -153 l-92 -24 61 -18 c80 -25
147 -67 155 -100 24 -94 -91 -273 -350 -544 -85 -88 -51 -67 99 61 200 172
398 391 527 582 62 93 144 247 131 245 -5 0 -51 -22 -103 -49z"/>
<path d="M8787 4369 c-121 -12 -263 -61 -355 -122 -171 -115 -255 -306 -222
-512 50 -322 380 -508 825 -466 127 12 203 28 298 63 l57 20 0 118 0 118 -77
-39 c-114 -58 -213 -80 -358 -80 -325 0 -529 147 -513 370 9 117 73 207 191
268 173 88 456 83 633 -11 l62 -33 7 61 c3 34 8 84 11 112 l6 51 -59 21 c-158
57 -333 78 -506 61z"/>
<path d="M12045 4348 c-103 -60 -49 -178 81 -178 88 0 151 62 128 126 -23 68
-134 95 -209 52z"/>
<path d="M1494 4333 c33 -86 34 -894 1 -1026 l-7 -27 145 0 145 0 -11 43 c-13
49 -17 866 -4 965 l8 62 -142 0 c-128 0 -141 -2 -135 -17z"/>
<path d="M7705 4339 c-16 -4 -65 -15 -107 -24 l-78 -16 0 -125 0 -124 -90 0
-90 0 0 -65 0 -65 89 0 89 0 3 -227 c4 -224 4 -229 31 -283 36 -73 97 -114
198 -136 89 -19 212 -13 292 14 l53 17 3 82 3 81 -52 -19 c-69 -27 -178 -27
-222 -2 -75 44 -90 102 -85 328 l3 140 173 3 172 2 0 65 0 65 -175 0 -174 0
-3 148 -3 148 -30 -7z"/>
<path d="M9577 4308 c11 -58 10 -920 0 -980 l-8 -48 140 0 139 0 -11 38 c-6
20 -11 114 -11 212 -1 195 4 216 70 284 61 63 107 81 210 81 83 0 94 -2 139
-30 79 -49 99 -99 103 -257 4 -114 -9 -273 -24 -313 -5 -13 15 -15 136 -15
l142 0 -7 28 c-14 56 -25 202 -25 347 0 134 -3 156 -24 207 -57 139 -165 201
-351 202 -152 1 -262 -56 -326 -169 -17 -30 -36 -55 -41 -55 -14 0 -4 433 10
478 l11 32 -140 0 -139 0 7 -42z"/>
<path d="M2532 4055 c-29 -8 -66 -22 -83 -30 -44 -23 -104 -88 -128 -140 -33
-70 -44 -58 -38 38 3 45 8 92 12 105 l7 22 -137 0 -137 0 9 -42 c4 -24 8 -178
8 -343 0 -165 -4 -319 -8 -342 l-9 -43 140 0 140 0 -11 38 c-7 22 -12 111 -12
217 0 166 2 183 22 221 47 88 120 135 220 142 115 8 191 -39 219 -136 14 -45
15 -88 11 -241 -3 -102 -9 -198 -13 -213 l-6 -28 137 0 137 0 -7 28 c-4 15 -9
107 -12 205 -6 206 1 238 67 306 54 56 94 74 176 79 193 12 252 -101 226 -431
-6 -78 -14 -152 -18 -164 l-6 -23 142 0 c131 0 141 1 136 18 -15 46 -25 182
-26 337 -1 222 -24 295 -118 368 -82 63 -270 82 -384 38 -71 -27 -149 -96
-177 -156 -12 -25 -25 -45 -30 -45 -4 0 -16 20 -25 45 -25 63 -94 129 -163
155 -74 28 -192 35 -261 15z"/>
<path d="M4484 4055 c-108 -23 -207 -91 -250 -170 -38 -70 -56 -29 -35 81 5
27 13 57 16 67 7 16 -4 17 -135 17 l-141 0 8 -57 c10 -73 11 -913 0 -970 l-7
-43 139 0 139 0 -10 38 c-5 20 -12 133 -15 250 -5 178 -3 212 8 212 8 0 23
-16 33 -35 91 -168 366 -232 573 -135 65 30 142 100 169 153 61 117 61 287 0
404 -48 94 -174 174 -301 193 -88 12 -115 12 -191 -5z m161 -179 c71 -30 113
-66 140 -119 44 -90 26 -178 -52 -248 -111 -100 -338 -100 -454 -1 -142 121
-85 314 110 377 59 19 201 14 256 -9z"/>
<path d="M5545 4064 c-16 -2 -65 -9 -108 -15 -42 -5 -100 -17 -127 -25 l-50
-15 0 -69 c0 -39 1 -70 3 -70 1 0 34 11 74 24 107 37 255 53 353 38 166 -24
223 -85 218 -233 l-3 -80 -52 50 c-92 87 -234 124 -401 103 -129 -17 -214 -57
-258 -124 -92 -137 -21 -304 152 -357 188 -59 399 -25 504 80 27 27 52 49 55
49 8 0 6 -72 -4 -108 l-10 -32 135 0 c74 0 134 1 134 3 0 1 -5 18 -11 37 -6
19 -14 145 -18 280 -6 224 -9 249 -28 286 -59 112 -195 171 -413 178 -63 3
-128 2 -145 0z m187 -418 c138 -30 198 -92 158 -167 -17 -31 -104 -69 -185
-79 -178 -23 -335 36 -335 125 0 99 180 159 362 121z"/>
<path d="M6753 4060 c-136 -20 -274 -86 -337 -161 -16 -19 -41 -59 -55 -89
-22 -46 -26 -69 -26 -145 0 -102 19 -156 80 -231 130 -158 450 -214 758 -132
l77 20 0 89 0 89 -41 -20 c-110 -56 -318 -77 -443 -45 -81 21 -164 79 -193
134 -44 83 -26 187 44 253 100 95 330 118 513 52 40 -14 73 -24 75 -22 1 2 5
38 7 80 l5 77 -48 16 c-115 38 -292 53 -416 35z"/>
<path d="M11087 4055 c-53 -7 -122 -21 -152 -30 l-55 -16 0 -69 c0 -39 1 -70
3 -70 1 0 34 11 74 24 107 37 255 53 353 38 166 -24 223 -85 218 -233 l-3 -80
-52 50 c-32 31 -73 57 -110 71 -198 76 -467 31 -549 -92 -92 -137 -21 -304
152 -357 188 -59 399 -25 504 80 27 27 52 49 55 49 8 0 6 -72 -4 -108 l-10
-32 135 0 c74 0 134 1 134 3 0 1 -5 18 -11 37 -6 19 -14 145 -18 280 -6 224
-9 249 -28 286 -60 113 -194 171 -418 179 -74 3 -157 -1 -218 -10z m327 -426
c91 -34 127 -90 96 -150 -17 -31 -104 -69 -183 -79 -180 -22 -337 36 -337 125
0 33 32 75 70 95 85 43 252 48 354 9z"/>
<path d="M13040 4064 c-112 -22 -202 -83 -251 -169 -17 -30 -36 -55 -41 -55
-11 0 -5 147 7 188 l7 22 -137 0 -137 0 9 -42 c4 -24 8 -178 8 -343 0 -165 -4
-319 -8 -342 l-9 -43 140 0 140 0 -11 38 c-6 21 -11 112 -12 212 0 195 5 216
71 284 61 63 107 81 210 81 83 0 94 -2 139 -30 79 -49 99 -99 103 -257 4 -114
-9 -273 -24 -313 -5 -13 15 -15 136 -15 l142 0 -7 28 c-14 56 -25 202 -25 347
0 134 -3 156 -24 207 -40 97 -102 154 -200 183 -52 16 -185 27 -226 19z"/>
<path d="M12007 3685 c-2 -192 -8 -362 -12 -377 l-7 -28 139 0 139 0 -13 78
c-10 56 -13 160 -11 377 l3 300 -117 0 -117 0 -4 -350z"/>
</g>
</svg>
